<svg id="Layer_1" enable-background="new 0 0 475.897 475.897" height="512" viewBox="0 0 475.897 475.897" width="512" xmlns="http://www.w3.org/2000/svg"><path d="m438.775 142.182c-9.881 0-19.171 3.838-26.169 10.807l-10.938-10.938 7.625-7.625c18.703-18.702 18.703-49.135 0-67.837-18.703-18.703-49.134-18.704-67.837 0l-7.625 7.625-10.938-10.938c14.404-14.469 14.385-37.958-.059-52.405-14.465-14.463-38-14.462-52.467.001l-22.152 22.153c-14.463 14.465-14.463 38.001 0 52.466 14.333 14.335 37.479 14.529 52.043.403l10.946 10.946c-.163.163-11.744 11.742-11.903 11.906l-29.755-6.645c-10.524-2.349-21.365.801-28.994 8.427l-130.032 130.036c-7.627 7.628-10.777 18.467-8.426 28.995l6.644 29.752-12.405 12.405-10.935-10.935c14.788-14.829 14.35-38.291.087-52.554-14.495-14.497-37.967-14.503-52.465 0l-22.153 22.152c-7.008 7.01-10.867 16.326-10.867 26.235 0 32.764 39.361 49.221 62.756 26.78l10.949 10.949-7.125 7.125c-18.702 18.703-18.702 49.134 0 67.837 18.708 18.708 49.14 18.697 67.833.004.193-.193 3.02-3.02 7.128-7.128l10.95 10.95c-22.571 23.546-5.746 62.74 26.779 62.74 9.5 0 19-3.616 26.233-10.849l22.153-22.153c23.362-23.363 6.594-63.333-26.233-63.333-9.691 0-19.043 3.677-26.32 10.954l-10.936-10.936 12.405-12.405 29.752 6.644c10.526 2.352 21.365-.799 28.995-8.427l130.031-130.033c7.628-7.627 10.778-18.467 8.427-28.995l-6.644-29.754 11.905-11.905 10.946 10.946c-14.113 14.553-13.944 37.697.402 52.043 14.495 14.497 37.967 14.503 52.466 0l22.154-22.152c23.364-23.364 6.596-63.334-26.231-63.334zm-167.931-79.316c-1.988-1.988-1.988-5.224 0-7.212 23.552-23.553 22.834-23.644 25.758-23.644 4.518 0 6.814 5.494 3.605 8.702l-22.154 22.153c-1.989 1.991-5.217 1.994-7.209.001zm-237.351 237.353c-1.989-1.988-1.993-5.218 0-7.211l22.154-22.152c1.983-1.984 5.214-1.997 7.21 0 .559 0 3.046 4.165 0 7.212l-22.153 22.152c-1.989 1.99-5.218 1.993-7.211-.001zm330.59-211.001c6.229-6.226 16.358-6.224 22.583 0 6.226 6.227 6.226 16.356 0 22.583l-7.625 7.625-22.583-22.583zm-115.917 218.049-79.547-79.548 59.09-59.091 79.547 79.548zm-136.374 79.412c-6.228 6.227-16.358 6.225-22.583 0-6.226-6.227-6.226-16.356-.001-22.582l7.125-7.125 22.583 22.583c-4.105 4.104-6.93 6.929-7.124 7.124zm93.238 26.351c1.988 1.988 1.988 5.224 0 7.212l-22.152 22.153c-1.988 1.988-5.223 1.988-7.21 0-1.988-1.988-1.989-5.224 0-7.212l22.153-22.153c1.988-1.99 5.217-1.993 7.209 0zm-21.833-77.19c-10.529-2.348-21.368.799-28.996 8.429.1.092.665-.666-12.659 12.658l-22.583-22.583 12.661-12.661c7.627-7.628 10.777-18.467 8.426-28.995l-6.644-29.752 12.589-12.589 79.547 79.547-12.589 12.589zm161.057-181.628c-7.628 7.627-10.778 18.467-8.427 28.995l6.644 29.754-12.588 12.588-79.547-79.548 12.588-12.589 29.753 6.645c12.062 2.692 23.472-2.291 28.995-8.428l12.159-12.159 22.583 22.583zm98.127 28.677-22.154 22.152c-1.975 1.976-5.205 2.005-7.209 0-.562 0-3.053-4.16-.001-7.212l22.153-22.152c1.989-1.99 5.218-1.993 7.211 0 1.989 1.988 1.988 5.223 0 7.212z"/></svg>