<svg id="Layer_1" enable-background="new 0 0 496 496" height="512" viewBox="0 0 496 496" width="512" xmlns="http://www.w3.org/2000/svg"><path d="m480 63h-148c-8.837 0-16 7.164-16 16s7.163 16 16 16h58v141.869l-99.71 64.71c-3.834 2.488-6.42 6.496-7.108 11.014l-5.388 35.407h-108.687c-2.758-11.566-8.421-22.017-16.194-30.517v-65.582l28.182-1.247c13.974-.619 25.853-10.587 28.888-24.242 3.615-16.27-6.167-32.379-22.271-36.674l-63.84-17.023c-35.385-9.441-70.02 21.352-58.61 54.542 5.67 16.496 21.805 27.552 39.336 26.782l16.316-.722v44.34c-37.903-10.823-76.966 12.367-86.021 50.343h-18.893c-8.836 0-16 7.164-16 16s7.164 16 16 16h18.893c7.238 30.354 34.569 53 67.107 53s59.87-22.646 67.107-53h169.786c7.238 30.354 34.569 53 67.107 53 38.047 0 69-30.953 69-69 0-32.538-22.646-59.87-53-67.107v-201.893h58c8.837 0 16-7.164 16-16s-7.163-16-16-16zm-376.817 159.07c-6.799.291-10.676-7.775-6.114-12.885 4.671-5.231 11.782-7.36 18.558-5.551l57.527 15.34zm210.554 102.44 76.263-49.493v21.876c-25.215 6.012-45.095 25.892-51.107 51.107h-28.73zm-211.737 76.49c-20.402 0-37-16.598-37-37s16.598-37 37-37 37 16.598 37 37-16.598 37-37 37zm341-37c0 20.402-16.598 37-37 37s-37-16.598-37-37 16.598-37 37-37 37 16.598 37 37zm-341-20c-11.028 0-20 8.972-20 20s8.972 20 20 20 20-8.972 20-20-8.972-20-20-20zm284 20c0 11.028 8.972 20 20 20s20-8.972 20-20-8.972-20-20-20-20 8.972-20 20z"/></svg>