<svg id="Layer_1" enable-background="new 0 0 496.006 496.006" height="512" viewBox="0 0 496.006 496.006" width="512" xmlns="http://www.w3.org/2000/svg"><path d="m495.792 278.532c-2.247-32.764-23.258-61.603-54.378-73.556l-181.013-69.534c-12.799-4.917-21.399-17.433-21.399-31.144v-53.55c0-19.71-16.035-35.745-35.745-35.745h-111.51c-19.709 0-35.745 16.035-35.745 35.745 0 120.836 4.399 72.113-26.38 256.285-2.122 12.696.84 25.582 8.132 36.027l-27.077 9.557c-6.397 2.258-10.675 8.305-10.675 15.088 0 67.628-.013 59.59.026 60.803.54 29.036 24.312 52.495 53.474 52.495 24.111 0 44.54-16.036 51.202-38h27.596c6.662 21.964 27.091 38 51.202 38s44.54-16.036 51.202-38h26.596c6.662 21.964 27.091 38 51.202 38s44.54-16.036 51.202-38h27.596c6.662 21.964 27.091 38 51.202 38 30.118 0 53.5-24.846 53.5-53v-80c0-4.536-1.896-8.622-4.928-11.533 3.153-6.462 4.928-13.714 4.928-21.375 0-37.3.049-34.894-.21-36.563zm-48.698 53.471c-3.957 0-367.898 0-369.234 0-10.466 0-18.405-9.356-16.676-19.694l2.558-15.306h400.26v18.092c0 9.323-7.585 16.908-16.908 16.908zm16.908 32v14.526c-28.964-12.767-62.623 2.445-72.384 32.474h-28.231c-6.972-21.448-27.141-37-50.884-37s-43.912 15.552-50.884 37h-27.231c-6.972-21.448-27.141-37-50.884-37s-43.912 15.552-50.884 37h-28.231c-8.093-24.896-33.637-41.184-60.814-36.062l31.275-11.038c2.529.155-19.555.1 389.152.1zm-386.344-150.27c15.618 13.589 27.938 30.844 35.5 51.27h-44.068zm10.344-162.985c0-2.065 1.68-3.745 3.745-3.745h111.511c2.065 0 3.745 1.68 3.745 3.745v4.255h-19c-8.836 0-16 7.163-16 16s7.164 16 16 16h19v9h-10c-8.836 0-16 7.163-16 16s7.164 16 16 16h14.517c6.605 16.803 20.026 30.634 37.407 37.311l6.67 2.563-3.901 6.268c-4.669 7.502-2.374 17.369 5.128 22.039 7.504 4.669 17.37 2.371 22.039-5.129l7.153-11.493 12.371 4.752-3.912 6.284c-4.669 7.502-2.374 17.369 5.128 22.039 7.504 4.669 17.37 2.371 22.039-5.129l7.164-11.509 18.922 7.269-3.891 6.252c-4.669 7.503-2.373 17.369 5.129 22.039 7.494 4.665 17.365 2.379 22.039-5.129l7.143-11.477 51.791 19.895c14.067 5.403 24.944 16.574 30.332 30.155h-313.449c-10.419-36.063-32.822-66.305-63.193-86.995 5.186-31.035 4.373-28.784 4.373-127.26zm-34.5 398.255c-11.855 0-21.5-9.645-21.5-21.5s9.645-21.5 21.5-21.5 21.5 9.645 21.5 21.5-9.645 21.5-21.5 21.5zm130 0c-11.855 0-21.5-9.645-21.5-21.5s9.645-21.5 21.5-21.5 21.5 9.645 21.5 21.5-9.645 21.5-21.5 21.5zm129 0c-11.855 0-21.5-9.645-21.5-21.5s9.645-21.5 21.5-21.5 21.5 9.645 21.5 21.5-9.645 21.5-21.5 21.5zm130 0c-11.855 0-21.5-9.645-21.5-21.5s9.645-21.5 21.5-21.5 21.5 9.645 21.5 21.5-9.645 21.5-21.5 21.5z"/></svg>