<?xml version="1.0" encoding="utf-8"?>
<!-- Generator: Adobe Illustrator 25.2.1, SVG Export Plug-In . SVG Version: 6.00 Build 0)  -->
<svg version="1.1" id="Layer_1" xmlns="http://www.w3.org/2000/svg" xmlns:xlink="http://www.w3.org/1999/xlink" x="0px" y="0px"
	 viewBox="0 0 512 512" enable-background="new 0 0 512 512" xml:space="preserve">
<line x1="299.1" y1="224.8" x2="352.6" y2="156.4"/>
<path d="M344.1,167.2l-91.4,116.9l-79.4-131.8h4.2c9.1,0,16.5-7.4,16.5-16.5c0-9.1-7.4-16.5-16.5-16.5h-51.6
	c-9.1,0-16.5,7.4-16.5,16.5c0,9.1,7.4,16.5,16.5,16.5h8.9l12.9,21.4l-18.5,40.5c-34.5-9.4-72.3-0.2-99.1,26.6
	c-40.2,40.2-40.2,104.5,0,144.7c59.2,59.2,159.9,26,173.4-55.5h47.4c5.1,0,9.9-2.3,13-6.3l92.7-118.5l5.5,16.7
	c-32.9,17.1-55.5,51.6-55.5,91.2c0,56.6,46.1,102.7,102.7,102.7c56.6,0,102.7-46.1,102.7-102.7c0-62.6-56-111.2-118.5-101.5v0
	l-34.2-103.4c-2.2-6.8-8.6-11.3-15.7-11.3h-38.1c-9.1,0-16.5,7.4-16.5,16.5c0,9.1,7.4,16.5,16.5,16.5h26.1 M102.5,382.4L102.5,382.4
	c-38.3,0-69.4-31.1-69.4-69.4c0-43.2,39.3-76.3,82.2-68.2l-28.1,61.7c-5,10.9,3,23.4,15,23.4h67.7C162.3,360,135,382.4,102.5,382.4z
	 M127.8,296.8l17.5-38.3c12.1,9.5,20.9,22.9,24.6,38.3H127.8z M203.6,296.8c-4.6-29-21.5-53.5-44.4-68.9l9.1-19.9l53.5,88.8H203.6z
	 M409.3,382.4c-38.4,0-69.7-31.3-69.7-69.7c0-25,13.2-46.9,33-59.2l21.2,64.2c2.3,6.9,8.7,11.3,15.7,11.3c11.2,0,19.2-11,15.7-21.7
	L404,243.3c40.7-3.1,74.9,29.3,74.9,69.5C479,351.2,447.7,382.4,409.3,382.4z"/>
</svg>
