<svg id="Layer_1" enable-background="new 0 0 496 496" height="512" viewBox="0 0 496 496" width="512" xmlns="http://www.w3.org/2000/svg"><path d="m244.575 330c-30.052 0-54.5 24.449-54.5 54.5s24.448 54.5 54.5 54.5 54.5-24.449 54.5-54.5-24.449-54.5-54.5-54.5zm0 77c-12.406 0-22.5-10.093-22.5-22.5s10.094-22.5 22.5-22.5 22.5 10.093 22.5 22.5-10.094 22.5-22.5 22.5zm173.5-372h-57.324c-2.47-19.703-19.315-35-39.676-35h-29c-20.361 0-37.207 15.297-39.676 35h-57.324c-8.837 0-16 7.164-16 16s7.163 16 16 16h57.451c2.812 18.614 18.498 33.06 37.667 33.952v180.989c-67.887-30.798-146.427 12.677-156.97 86.059h-55.298c-8.837 0-16 7.164-16 16s7.163 16 16 16h55.297c7.788 54.204 54.528 96 110.852 96 61.757 0 112-50.243 112-112 0-31.4-12.995-59.819-33.882-80.175v-202.853c19.514-.54 35.581-15.112 38.431-33.972h57.451c8.837 0 16-7.164 16-16s-7.162-16-15.999-16zm-94 349c0 44.112-35.888 80-80 80s-80-35.888-80-80 35.888-80 80-80 80 35.888 80 80zm5-323c0 4.411-3.589 8-8 8h-29c-4.411 0-8-3.589-8-8v-21c0-4.411 3.589-8 8-8h29c4.411 0 8 3.589 8 8z"/></svg>