<svg id="Layer_1" enable-background="new 0 0 496.025 496.025" height="512" viewBox="0 0 496.025 496.025" width="512" xmlns="http://www.w3.org/2000/svg"><path d="m79.518 327.066c-10.201 0-18.5 8.299-18.5 18.5s8.299 18.5 18.5 18.5 18.5-8.299 18.5-18.5-8.3-18.5-18.5-18.5zm414.735-25.001c-15.687-30.566-45.331-48.793-76.932-51.427l2.545-24.612c.424-4.102-.751-8.209-3.282-11.465l-49.035-63.088 14.029-4.545c8.591-2.784 13.186-12.138 10.122-20.645l-15.804-43.871c-2.626-7.288-10.093-11.649-17.734-10.351-88.673 15.068-69.645 11.834-118.75 20.18-8.711 1.48-14.574 9.742-13.093 18.454 1.48 8.711 9.741 14.572 18.455 13.093l22.406-3.807 17.932 42.782c2.175 5.191 6.797 8.657 12.009 9.57l2.202 25.928c2.734 32.198-8.252 63.49-30.271 86.804h-50.252l-6.279-42.901c14.01-7.894 23.499-22.905 23.499-40.099 0-25.364-20.636-46-46-46h-112c-34.936 0-57.088 37.617-40.337 68.087-22.469 11.831-37.663 35.402-37.663 62.37 0 .528 1.717 41.545 1.739 42.075-10.454 49.095 27.076 95.468 77.261 95.468 37.011 0 68.145-25.589 76.675-60 140.09 0 131.035.286 134.22-.652l25.056-7.385c1.265 11.341 4.596 22.475 9.962 32.932 2.835 5.523 8.438 8.697 14.248 8.697 4.306 0 6.928-1.581 9.338-2.817 14.848 18.4 37.27 29.35 61.536 29.35 51.738 0 90.198-49.339 76.312-100.092 9.974-5.122 11.478-15.032 7.886-22.033zm-37.584 1.304-108.765 55.817c-2.421-10.837-1.927-22.166 1.563-33.016 14.905-46.329 74.781-59.141 107.202-22.801zm-106.343-197.516 5.666 15.728-47.057 15.244-9.366-22.347zm-272.308 82.213h112c7.72 0 14 6.28 14 14s-6.28 14-14 14h-112c-7.72 0-14-6.28-14-14s6.28-14 14-14zm1 204c-25.916 0-47-21.084-47-47s21.084-47 47-47 47 21.084 47 47-21.084 47-47 47zm204.063-60h-126.152c-9.621-57.838-77.193-85.479-124.557-50.706 2.427-18.048 17.387-32.238 36.108-33.241l-.057-1.066c6.573 1.4.666 1.014 112.617 1.014l8.096 55.317c1.15 7.857 7.89 13.683 15.832 13.683h70.713c4.102 0 8.046-1.575 11.02-4.4 32.02-30.419 48.241-73.105 44.503-117.111l-2.67-31.443 6.635-2.149 52.203 67.164-2.531 24.477c-32.185 8.735-58.555 33.759-67.444 68.349zm94.965 47.621 78.791-40.435c5.335 44.012-47.123 69.752-78.791 40.435z"/></svg>