<svg id="Layer_1" enable-background="new 0 0 496.02 496.02" height="512" viewBox="0 0 496.02 496.02" width="512" xmlns="http://www.w3.org/2000/svg"><path d="m264.01 176.818v-86.079l34.246-1.518c15.319-.678 28.34-11.616 31.665-26.599 3.959-17.843-6.762-35.511-24.406-40.224l-76.52-20.437c-39.896-10.659-79.29 23.872-66.435 61.327 6.148 17.916 23.268 30.04 42.069 30.039 1.363 0-.226.053 27.38-1.17v84.661c-80.74 8.053-144 76.377-144 159.202 0 88.225 71.776 160 160 160s160-71.775 160-160c.001-82.825-63.259-151.149-143.999-159.202zm-58.86-115.502c-5.464.227-10.539-3.218-12.323-8.415-3.899-11.361 9.373-20.891 21.33-20.891 4.601 0-.128-.925 83.099 21.305 2.191.586 1.821 3.839-.417 3.938zm42.86 290.704c8.836 0 16-7.163 16-16v-74.291c34.247 7.369 60 37.873 60 74.291 0 41.906-34.093 76-76 76s-76-34.094-76-76c0-36.417 25.753-66.921 60-74.291v74.291c0 8.837 7.164 16 16 16zm0 112c-70.58 0-128-57.421-128-128 0-65.161 48.944-119.104 112-127.002v20.189c-51.991 7.754-92 52.697-92 106.813 0 59.552 48.449 108 108 108s108-48.448 108-108c0-54.116-40.009-99.059-92-106.813v-20.189c63.056 7.898 112 61.841 112 127.002 0 70.579-57.42 128-128 128z"/></svg>