<svg id="Layer_1" enable-background="new 0 0 496 496" height="512" viewBox="0 0 496 496" width="512" xmlns="http://www.w3.org/2000/svg"><path d="m480 65h-148c-8.836 0-16 7.164-16 16s7.164 16 16 16h58v141.868l-99.71 64.71c-3.833 2.488-6.42 6.496-7.107 11.014l-5.389 35.408h-92.794v-25.067c0-25.472-12.92-48.698-34.562-62.131-12.171-7.555-19.438-20.617-19.438-34.943v-6.979c25.892-7.013 45-30.703 45-58.783v-45.097c0-8.836-7.164-16-16-16h-4v-24c0-8.836-7.164-16-16-16s-16 7.164-16 16v24h-18v-24c0-8.836-7.164-16-16-16s-16 7.164-16 16v24h-4c-8.836 0-16 7.164-16 16v45.097c0 28.08 19.108 51.771 45 58.783v6.979c0 25.472 12.92 48.698 34.562 62.131 10.506 6.521 17.346 17.15 19.024 29.149-37.5-40.451-104.937-22.638-117.693 30.861h-18.893c-8.836 0-16 7.164-16 16s7.164 16 16 16h18.893c7.238 30.354 34.569 53 67.107 53s59.87-22.646 67.107-53h169.786c7.238 30.354 34.569 53 67.107 53 38.047 0 69-30.953 69-69 0-32.538-22.646-59.87-53-67.107v-201.893h58c8.836 0 16-7.164 16-16s-7.164-16-16-16zm-394 97.097v-29.097h58v29.097c0 15.538-12.492 28.903-29.097 28.903-15.937 0-28.903-12.966-28.903-28.903zm227.737 164.413 76.263-49.493v21.876c-25.215 6.012-45.095 25.892-51.107 51.107h-28.73zm-211.737 76.49c-20.402 0-37-16.598-37-37s16.598-37 37-37 37 16.598 37 37-16.598 37-37 37zm341-37c0 20.402-16.598 37-37 37s-37-16.598-37-37 16.598-37 37-37 37 16.598 37 37zm-341-20c-11.028 0-20 8.972-20 20s8.972 20 20 20 20-8.972 20-20-8.972-20-20-20zm284 20c0 11.028 8.972 20 20 20s20-8.972 20-20-8.972-20-20-20-20 8.972-20 20z"/></svg>