<svg id="Layer_1" enable-background="new 0 0 496 496" height="512" viewBox="0 0 496 496" width="512" xmlns="http://www.w3.org/2000/svg"><path d="m480 63h-148c-8.837 0-16 7.164-16 16s7.163 16 16 16h58v141.869l-99.71 64.71c-3.834 2.488-6.42 6.496-7.108 11.014l-5.389 35.407h-108.686c-7.238-30.354-34.569-53-67.107-53s-59.87 22.646-67.107 53h-18.893c-8.837 0-16 7.164-16 16s7.163 16 16 16h18.893c7.237 30.354 34.569 53 67.107 53s59.87-22.646 67.107-53h169.786c7.237 30.354 34.569 53 67.107 53 38.047 0 69-30.953 69-69 0-32.538-22.646-59.87-53-67.107v-201.893h58c8.837 0 16-7.164 16-16s-7.163-16-16-16zm-166.263 261.51 76.263-49.493v21.876c-25.215 6.012-45.095 25.892-51.107 51.107h-28.73zm-211.737 76.49c-20.402 0-37-16.598-37-37s16.598-37 37-37 37 16.598 37 37-16.598 37-37 37zm341-37c0 20.402-16.598 37-37 37s-37-16.598-37-37 16.598-37 37-37 37 16.598 37 37zm-341-20c-11.028 0-20 8.972-20 20s8.972 20 20 20 20-8.972 20-20-8.972-20-20-20zm284 20c0 11.028 8.972 20 20 20s20-8.972 20-20-8.972-20-20-20-20 8.972-20 20z"/></svg>