<svg id="Layer_1" enable-background="new 0 0 496.002 496.002" height="512" viewBox="0 0 496.002 496.002" width="512" xmlns="http://www.w3.org/2000/svg"><path d="m398.054 268.125-5.035-11.395 26.574-20.81c6.939-5.434 8.177-15.457 2.769-22.416-13.318-17.136-4.194-5.346-45.718-59.114l11.789-2.73c11.845-2.742 16.426-17.226 8.293-26.28l-45.04-50.139c-3.805-4.236-9.577-6.132-15.149-4.975-8.506 1.762-80.953 16.774-94.33 19.546-8.652 1.793-14.213 10.261-12.42 18.914 1.793 8.652 10.256 14.215 18.914 12.42l18.576-3.849 22.529 44.675c2.077 4.119 5.746 7.015 9.961 8.2l-.677 55.649-37.644 51.248h-40.114l-6.245-37.47c12.58-8.218 20.917-22.415 20.917-38.53 0-25.364-20.636-46-46-46h-112c-37.232 0-59.019 42.173-37.567 72.497l-21.28 10.661c-6.974 3.494-10.413 11.508-8.139 18.969 7.134 23.41 7.137 27.318 13.307 31.508-51.16 49.67-16.39 137.365 55.679 137.365 37.565 0 69.149-26.032 77.701-61h131.693c4.965 0 9.648-2.305 12.677-6.238 67.166-87.229 57.986-76.291 64.954-81.748l1.92 4.345c-19.949 14.562-32.945 38.107-32.945 64.641 0 44.112 35.888 80 80 80s80-35.888 80-80c-.002-51.192-47.719-89.506-97.95-77.944zm-64.029-164.659 20.781 23.134c-46.23 10.706-41.437 9.601-42.091 9.738l-12.992-25.764zm-256.023 83.604h112c7.72 0 14 6.28 14 14s-6.28 14-14 14h-112c-7.72 0-14-6.28-14-14s6.281-14 14-14zm2 207c-26.467 0-48-21.533-48-48 0-19.109 11.227-35.642 27.43-43.36 1.352-.374 2.654-.923 3.87-1.639 31.28-11.646 64.7 11.617 64.7 44.999 0 26.467-21.532 48-48 48zm201.521-61h-122.593c-7.798-47.5-56.105-77.922-102.697-63.395l-9.531-5.153-1.138-3.733 27.844-13.949c3.303.329-4.503.23 110.481.23l8.105 48.63c1.286 7.715 7.961 13.37 15.782 13.37h61.769c5.092 0 9.88-2.424 12.895-6.528l45.48-61.917c1.978-2.693 3.063-5.937 3.104-9.278l.81-66.581 10.512-2.434c1.011 1.309 44 56.978 44.967 58.221l-46.658 36.538c-2.266 1.777 1.872-3.247-59.132 75.979zm134.479 61c-26.467 0-48-21.533-48-48s21.533-48 48-48 48 21.533 48 48-21.532 48-48 48zm-335.5-67c-10.201 0-18.5 8.299-18.5 18.5s8.299 18.5 18.5 18.5 18.5-8.299 18.5-18.5-8.299-18.5-18.5-18.5zm334.5.5c-10.201 0-18.5 8.299-18.5 18.5s8.299 18.5 18.5 18.5 18.5-8.299 18.5-18.5-8.299-18.5-18.5-18.5z"/></svg>