<svg id="Layer_1" enable-background="new 0 0 496 496" height="512" viewBox="0 0 496 496" width="512" xmlns="http://www.w3.org/2000/svg"><path d="m181 398v22c0 8.837-7.164 16-16 16s-16-7.163-16-16v-22c0-8.837 7.164-16 16-16s16 7.163 16 16zm35-16c-8.836 0-16 7.163-16 16v50c0 8.837 7.164 16 16 16s16-7.163 16-16v-50c0-8.837-7.164-16-16-16zm114 0c-8.836 0-16 7.163-16 16v22c0 8.837 7.164 16 16 16s16-7.163 16-16v-22c0-8.837-7.164-16-16-16zm-51 0c-8.836 0-16 7.163-16 16v50c0 8.837 7.164 16 16 16s16-7.163 16-16v-50c0-8.837-7.164-16-16-16zm217-183.921v56.921c0 8.837-7.164 16-16 16h-96v29c0 8.837-7.164 16-16 16h-4v33c0 8.837-7.164 16-16 16h-80c-8.836 0-16-7.163-16-16v-33c-2.895 0-5.105 0-8 0v33c0 8.837-7.164 16-16 16h-80c-8.836 0-16-7.163-16-16v-33h-4c-8.836 0-16-7.163-16-16v-29h-96c-8.836 0-16-7.163-16-16v-56.921c0-5.793 3.131-11.133 8.186-13.962l103.814-58.104v-18.142c0-41.175 33.272-75.871 76.129-75.871 24.314 0 45.976 11.509 59.871 29.351 14.103-18.11 35.799-29.351 60.129-29.351 41.835 0 75.871 34.035 75.871 75.871v18.142l103.814 58.104c5.055 2.829 8.186 8.169 8.186 13.962zm-264-6.079h-88v92h88zm120 92v-92h-88v92zm-88-176.129v52.129h88v-21.888c-.338-1.851-.335-3.764 0-5.654v-24.587c0-23.793-19.183-43.871-44.129-43.871-24.19 0-43.871 19.681-43.871 43.871zm-120 0v24.587c.335 1.89.338 3.804 0 5.654v21.888h88v-52.129c0-23.793-19.183-43.871-44.129-43.871-24.19 0-43.871 19.681-43.871 43.871zm-32 131.129v-76.315l-80 44.775v31.54zm100 77h-48v17h48zm120 0h-48v17h48zm132-108.54-80-44.775v76.315h80z"/></svg>