<svg id="Layer_1" enable-background="new 0 0 496 496" height="512" viewBox="0 0 496 496" width="512" xmlns="http://www.w3.org/2000/svg"><path d="m427.5 101.865c-33.595 0-61.599 24.317-67.385 56.269h-224.23c-5.786-31.952-33.79-56.269-67.385-56.269-37.771 0-68.5 30.729-68.5 68.5v155.269c0 37.771 30.729 68.5 68.5 68.5 35.579 0 64.897-27.267 68.183-62h76.906c8.31 0 16.659-1.905 24.147-5.51 6.523-3.141 14.005-3.141 20.528 0 7.487 3.605 15.837 5.51 24.146 5.51h76.906c3.286 34.733 32.605 62 68.183 62 37.771 0 68.5-30.729 68.5-68.5v-155.269c.001-37.771-30.728-68.5-68.499-68.5zm-36.5 68.5c0-20.126 16.374-36.5 36.5-36.5s36.5 16.374 36.5 36.5v102.769h-73zm-254 19.77h222v57h-222zm-68.5-56.27c20.126 0 36.5 16.374 36.5 36.5v102.769h-73v-102.769c0-20.125 16.374-36.5 36.5-36.5zm36.5 191.77c0 20.126-16.374 36.5-36.5 36.5s-36.5-16.375-36.5-36.5v-20.5h73zm167.146-27.842c-15.343-7.389-32.945-7.391-48.292 0-6.669 3.21-4.785 2.342-86.854 2.342v-21h222v21c-81.559 0-80.106.905-86.854-2.342zm155.354 64.342c-20.126 0-36.5-16.374-36.5-36.5v-20.5h73v20.5c0 20.125-16.374 36.5-36.5 36.5zm-81.5-146c0 8.836-7.163 16-16 16h-38c-8.837 0-16-7.164-16-16s7.163-16 16-16h38c8.837 0 16 7.163 16 16zm-126 0c0 8.836-7.163 16-16 16h-38c-8.837 0-16-7.164-16-16s7.163-16 16-16h38c8.837 0 16 7.163 16 16z"/></svg>