<svg id="Layer_1" enable-background="new 0 0 528.224 528.224" height="512" viewBox="0 0 528.224 528.224" width="512" xmlns="http://www.w3.org/2000/svg"><path d="m405.176.238c-27.126-1.207-53.638 6.129-76.044 20.804-15.69-12.526-38.693-11.537-53.218 2.987l-47.554 47.554c-13.935 13.936-15.408 35.482-4.628 51.018l-101.172 101.171c-15.579-10.768-37.154-9.236-51.012 4.622l-47.554 47.554c-14.753 14.754-15.38 37.737-2.988 53.22-54.029 82.518 1.945 194.413 101.972 198.818 26.956 1.198 53.52-6.057 76.044-20.804 15.759 12.582 38.745 11.485 53.218-2.987l47.554-47.554c13.935-13.936 15.408-35.482 4.628-51.018l101.172-101.172c15.66 10.825 37.206 9.184 51.013-4.622l47.554-47.554c14.763-14.764 15.372-37.753 2.984-53.224 54.493-83.244-2.758-194.444-101.969-198.813zm62.61 60.165c31.442 31.442 37.045 79.147 15.484 116.415-12.876-7.352-28.99-6.979-41.535 1.123l-91.481-91.48c8.13-12.538 8.515-28.671 1.124-41.553 37.271-21.6 84.88-16.033 116.408 15.495zm-185.996 322.599c-13.282-9.181-30.919-9.416-44.421-.696l-91.48-91.48c8.734-13.468 8.547-31.11-.696-44.432l101.171-101.171c13.283 9.182 30.883 9.441 44.421.696l91.48 91.48c-8.734 13.468-8.547 31.11.696 44.432zm-157.897-68.918 90.212 90.212-14.209 14.209-90.212-90.212c7.377-7.377 7.142-7.141 14.209-14.209zm280.368-99.943-90.212-90.212 14.209-14.209 90.212 90.212c-7.377 7.376-7.141 7.141-14.209 14.209zm-153.274-119.93 47.554-47.554c3.119-3.12 8.194-3.118 11.314-.001 13.29 13.29 14.792 13.841 14.792 18.105 0 1.238-.304 3.618-2.343 5.657l-47.554 47.554c-3.119 3.121-8.195 3.121-11.314 0l-12.448-12.449c-3.122-3.119-3.128-8.185-.001-11.312zm-204.365 204.365 47.554-47.554c3.116-3.117 8.194-3.122 11.314-.001 13.411 13.412 12.449 12.35 12.449 12.45 3.12 3.119 3.126 8.186 0 11.313l-47.555 47.554c-3.118 3.121-8.194 3.119-11.314.001-13.189-13.189-14.792-13.828-14.792-18.105 0-1.239.304-3.619 2.344-5.658zm13.746 169.245c-31.536-31.537-37.1-79.146-15.492-116.419 12.941 7.392 29.024 6.967 41.543-1.118l91.48 91.48c-8.147 12.564-8.5 28.697-1.123 41.554-37.271 21.599-84.879 16.032-116.408-15.497zm216.799-33.807-47.554 47.554c-3.118 3.121-8.193 3.119-11.314.001-7.959-7.959-5.115-5.114-12.448-12.448-3.121-3.121-3.127-8.187 0-11.314l47.554-47.554c3.117-3.119 8.195-3.12 11.314-.001l12.448 12.45c3.121 3.119 3.127 8.185 0 11.312zm204.366-204.366-47.554 47.554c-3.12 3.121-8.196 3.12-11.314.001-13.411-13.412-12.449-12.35-12.449-12.45-3.12-3.119-3.126-8.185 0-11.312l47.555-47.554c3.117-3.119 8.193-3.12 11.314-.001l12.448 12.448c3.121 3.122 3.127 8.187 0 11.314z"/></svg>