<svg id="Layer_1" enable-background="new 0 0 496 496" viewBox="0 0 496 496" xmlns="http://www.w3.org/2000/svg"><path d="m381.163 204.683c-7.513-22.745-20.265-61.347-26.156-79.183h46.493c3.584 0 6.5 2.916 6.5 6.5s-2.916 6.5-6.5 6.5h-10.5c-8.837 0-16 7.163-16 16s7.163 16 16 16h10.5c21.229 0 38.5-17.271 38.5-38.5s-17.271-38.5-38.5-38.5h-68.629c-10.886 0-18.613 10.668-15.192 21.019l17.831 53.981c-28.963 0-146.93 0-164.491 0l-8.015-21h8.996c8.837 0 16-7.163 16-16s-7.163-16-16-16h-50c-8.837 0-16 7.163-16 16s7.163 16 16 16h6.752l13.756 36.041-12.926 25.187c-63.959-20.664-129.582 27.729-129.582 94.498 0 54.565 44.703 99.258 99.258 99.258 49.189 0 90.129-35.968 97.917-82.983h45.881c6.32 0 12.049-3.721 14.618-9.496l48.719-109.505h39.688l4.677 14.157c-31.91 16.59-53.758 49.961-53.758 88.343 0 54.864 44.636 99.5 99.5 99.5s99.5-44.636 99.5-99.5c0-60.625-54.22-107.74-114.837-98.317zm-281.905 165.8c-37.086 0-67.258-30.171-67.258-67.257 0-43.065 40.27-75.445 82.678-65.454l-29.981 58.423c-5.454 10.629 2.276 23.305 14.235 23.305h65.583c-7.297 29.247-33.782 50.983-65.257 50.983zm65.384-82.983h-39.516l18.042-35.157c10.475 9.053 18.133 21.269 21.474 35.157zm68.02 0h-35.401c-4.229-26.371-18.866-48.984-39.237-64.105l11.749-22.895h101.596zm163.838 83c-37.22 0-67.5-30.28-67.5-67.5 0-24.198 12.806-45.452 31.989-57.37l20.561 62.243c2.222 6.726 8.475 10.985 15.189 10.985 10.86 0 18.622-10.649 15.195-21.022l-20.521-62.125c39.493-2.959 72.587 28.387 72.587 67.289 0 37.22-30.28 67.5-67.5 67.5z"/></svg>